# xmcd CD database file
#
# Track frame offsets:
#	150
#	16067
#	48507
#	61062
#	77245
#	97682
#	110095
#	126882
#	161627
#	191705
#	208512
#	233827
#	262140
#
# Disc length: 3754 seconds
#
# Revision: 0
# Processed by: cddbd v1.5.1PL0 Copyright (c) Steve Scherf et al.
# Submitted via: CDex 1.60beta1
#
DISCID=ac0ea80d
DTITLE=Various Artist - Jazz For Sensual Lovers
DYEAR=0
DGENRE=Jazz
TTITLE0=The Nearness Of You
TTITLE1=Lovely Afternoon
TTITLE2=Haunted Heart
TTITLE3=Ballade
TTITLE4=But Not For Me
TTITLE5=Moonlight In Vermont
TTITLE6=Emily
TTITLE7=Peace
TTITLE8=Once I Loved
TTITLE9=Mean To Me
TTITLE10=My Foolish Heart
TTITLE11=We'll Be Together Again
TTITLE12=Don't Take Your Love From Me
EXTD=YEAR: 0
EXTT0=
EXTT1=
EXTT2=
EXTT3=
EXTT4=
EXTT5=
EXTT6=
EXTT7=
EXTT8=
EXTT9=
EXTT10=
EXTT11=
EXTT12=
PLAYORDER=
